<?xml version="1.0" encoding="UTF-8"?><svg id="uuid-8aadb287-f7d7-4e40-8363-e9ca44d04711" xmlns="http://www.w3.org/2000/svg" viewBox="0 0 79.846 79.846"><rect width="79.846" height="79.846" rx="17.147" ry="17.147" style="fill:#1d1d1b; stroke-width:0px;"/><g id="uuid-4dac6bb8-8b47-4340-8bf5-883af0b12795"><path d="m26.313,49.602c-2.341-4.59-4.682-9.179-7.023-13.769-.519-1.017.459-2.151,1.542-1.787,2.892.973,5.783,1.945,8.675,2.918.952.32,1.978-.225,2.245-1.194l2.92-10.595c.309-1.12,1.657-1.565,2.572-.849l8.656,6.771c.791.619,1.94.446,2.514-.378,1.743-2.504,3.487-5.007,5.23-7.511.653-.937,2.114-.609,2.303.517.853,5.081,1.707,10.162,2.56,15.243l-32.193,10.634Z" style="fill:#f9b546; stroke-width:0px;"/><path d="m59.486,47.571l-28.836,9.525c-.927.306-1.927-.197-2.233-1.124l-1.218-3.687,32.193-10.634,1.218,3.687c.306.927-.197,1.927-1.124,2.233Z" style="fill:#f9b546; stroke-width:0px;"/></g></svg>