<?xml version="1.0" encoding="UTF-8"?><svg id="uuid-5c0befb6-352f-4c24-a1b2-85f763d3bd08" xmlns="http://www.w3.org/2000/svg" viewBox="0 0 347.182 108.913"><path d="m45.767,55.969h19.108v27.591c-3.854,2.673-8.328,4.724-13.423,6.152-5.096,1.429-10.099,2.144-15.007,2.144-6.96,0-13.205-1.445-18.735-4.334-5.531-2.89-9.866-6.929-13.003-12.118-3.139-5.188-4.707-11.076-4.707-17.663s1.568-12.475,4.707-17.664c3.137-5.188,7.518-9.228,13.143-12.117,5.623-2.89,11.978-4.334,19.062-4.334,6.4,0,12.132,1.072,17.198,3.216,5.063,2.144,9.274,5.267,12.63,9.367l-14.075,12.397c-4.102-4.784-8.98-7.178-14.634-7.178-4.847,0-8.701,1.461-11.558,4.382-2.859,2.921-4.288,6.897-4.288,11.931,0,4.909,1.413,8.854,4.241,11.838,2.827,2.982,6.602,4.474,11.325,4.474,2.796,0,5.467-.527,8.016-1.584v-16.499Z" style="fill:#1d1d1b; stroke-width:0px;"/><path d="m76.014,87.893c-4.506-2.268-8.032-5.406-10.579-9.414-2.549-4.008-3.822-8.56-3.822-13.655s1.273-9.647,3.822-13.655c2.547-4.008,6.073-7.131,10.579-9.368,4.505-2.236,9.585-3.355,15.24-3.355,5.717,0,10.827,1.119,15.333,3.355,4.505,2.237,8.017,5.36,10.533,9.368s3.774,8.561,3.774,13.655-1.258,9.647-3.774,13.655-6.028,7.146-10.533,9.414c-4.506,2.27-9.616,3.402-15.333,3.402-5.655,0-10.735-1.133-15.24-3.402Zm21.206-15.659c1.552-1.771,2.33-4.241,2.33-7.41s-.778-5.623-2.33-7.363c-1.555-1.739-3.542-2.61-5.966-2.61s-4.413.871-5.966,2.61c-1.554,1.74-2.33,4.194-2.33,7.363s.776,5.64,2.33,7.41c1.553,1.771,3.542,2.656,5.966,2.656s4.411-.885,5.966-2.656Z" style="fill:#1d1d1b; stroke-width:0px;"/><path d="m174.584,21.201v69.163h-20.041v-4.194c-3.045,3.418-7.706,5.126-13.981,5.126-4.475,0-8.592-1.071-12.351-3.216-3.761-2.144-6.743-5.234-8.948-9.274-2.206-4.038-3.309-8.699-3.309-13.981s1.103-9.927,3.309-13.936c2.205-4.008,5.188-7.084,8.948-9.228,3.759-2.144,7.876-3.216,12.351-3.216,5.653,0,9.974,1.461,12.956,4.381v-21.625h21.066Zm-23.023,51.033c1.553-1.771,2.33-4.241,2.33-7.41s-.777-5.623-2.33-7.363c-1.554-1.739-3.542-2.61-5.966-2.61s-4.413.871-5.966,2.61c-1.554,1.74-2.33,4.194-2.33,7.363s.776,5.64,2.33,7.41c1.553,1.771,3.543,2.656,5.966,2.656s4.412-.885,5.966-2.656Z" style="fill:#1d1d1b; stroke-width:0px;"/><path d="m188.891,28.658c-1.461,1.554-2.19,3.854-2.19,6.897v5.779h15.1v5.593h-14.913v43.437h-6.618v-43.437h-8.762v-5.593h8.762v-6.059c0-4.475,1.289-8.017,3.868-10.626,2.578-2.61,6.229-3.915,10.952-3.915,1.864,0,3.666.265,5.406.792,1.739.529,3.2,1.291,4.381,2.284l-2.237,4.94c-1.927-1.615-4.35-2.424-7.271-2.424-2.858,0-5.019.777-6.478,2.33Z" style="fill:#1d1d1b; stroke-width:0px;"/><path d="m249.615,41.335l-24.514,54.901c-1.99,4.598-4.288,7.86-6.898,9.787-2.609,1.926-5.748,2.89-9.414,2.89-2.362,0-4.567-.373-6.618-1.118-2.051-.746-3.821-1.864-5.312-3.356l3.076-4.939c2.484,2.484,5.467,3.729,8.948,3.729,2.236,0,4.147-.622,5.732-1.864,1.584-1.244,3.06-3.356,4.427-6.339l2.145-4.754-21.905-48.936h6.898l18.455,41.665,18.456-41.665h6.524Z" style="fill:#1d1d1b; stroke-width:0px;"/><circle cx="250.039" cy="80.381" r="9.983" style="fill:#6c4997; stroke-width:0px;"/><path d="m274.175,88.011c-3.491-1.929-6.229-4.641-8.216-8.131-1.987-3.491-2.98-7.421-2.98-11.792s.993-8.286,2.98-11.749c1.986-3.461,4.725-6.158,8.216-8.088,3.49-1.929,7.449-2.895,11.877-2.895,3.858,0,7.307.753,10.344,2.256,3.036,1.505,5.435,3.703,7.194,6.599l-4.513,3.064c-1.477-2.214-3.35-3.874-5.619-4.98-2.271-1.106-4.739-1.66-7.406-1.66-3.235,0-6.145.724-8.728,2.171s-4.597,3.506-6.044,6.173c-1.448,2.668-2.172,5.704-2.172,9.109,0,3.463.724,6.514,2.172,9.152,1.447,2.64,3.461,4.683,6.044,6.13s5.492,2.171,8.728,2.171c2.667,0,5.136-.538,7.406-1.617,2.27-1.077,4.143-2.725,5.619-4.938l4.513,3.065c-1.76,2.895-4.172,5.095-7.236,6.599-3.065,1.504-6.5,2.256-10.302,2.256-4.428,0-8.387-.965-11.877-2.895Z" style="fill:#1d1d1b; stroke-width:0px;"/><path d="m312.785,87.968c-3.463-1.958-6.187-4.668-8.173-8.131-1.987-3.461-2.98-7.378-2.98-11.749s.993-8.286,2.98-11.749c1.986-3.461,4.71-6.158,8.173-8.088,3.462-1.929,7.35-2.895,11.664-2.895s8.201.966,11.664,2.895c3.461,1.93,6.173,4.627,8.131,8.088,1.958,3.463,2.938,7.379,2.938,11.749s-.979,8.288-2.938,11.749c-1.958,3.463-4.67,6.173-8.131,8.131-3.463,1.958-7.352,2.938-11.664,2.938s-8.202-.979-11.664-2.938Zm20.221-4.598c2.524-1.447,4.497-3.504,5.917-6.172,1.418-2.668,2.128-5.705,2.128-9.11s-.71-6.441-2.128-9.109c-1.42-2.667-3.393-4.726-5.917-6.173-2.526-1.447-5.379-2.171-8.557-2.171s-6.031.724-8.557,2.171c-2.526,1.447-4.512,3.506-5.959,6.173-1.448,2.668-2.172,5.704-2.172,9.109s.724,6.442,2.172,9.11c1.447,2.668,3.433,4.725,5.959,6.172,2.525,1.447,5.377,2.171,8.557,2.171s6.03-.724,8.557-2.171Z" style="fill:#1d1d1b; stroke-width:0px;"/><g id="uuid-e03d2c32-647f-4f3c-83f1-9f25c04fda84"><path d="m7.48,26.942C5.139,22.352,2.798,17.762.457,13.173c-.519-1.017.459-2.151,1.542-1.787,2.892.973,5.783,1.945,8.675,2.918.952.32,1.978-.225,2.245-1.194l2.92-10.595c.309-1.12,1.657-1.565,2.572-.849l8.656,6.771c.791.619,1.94.446,2.514-.378,1.743-2.504,3.487-5.007,5.23-7.511.653-.937,2.114-.609,2.303.517.853,5.081,1.707,10.162,2.56,15.243L7.48,26.942Z" style="fill:#fab746; stroke-width:0px;"/><path d="m40.653,24.91l-28.836,9.525c-.927.306-1.927-.197-2.233-1.124l-1.218-3.687,32.193-10.634,1.218,3.687c.306.927-.197,1.927-1.124,2.233Z" style="fill:#fab746; stroke-width:0px;"/></g></svg>